<svg width="26" height="26" viewBox="0 0 26 26" fill="none" xmlns="http://www.w3.org/2000/svg">
<path fill-rule="evenodd" clip-rule="evenodd" d="M22.1024 14.7118C22.4899 14.9176 22.7888 15.2426 22.9992 15.5676C23.4088 16.2393 23.3756 17.0626 22.977 17.7885L22.202 19.0885C21.7924 19.7818 21.0285 20.2151 20.2424 20.2151C19.8549 20.2151 19.4232 20.1068 19.0689 19.8901C18.781 19.706 18.4489 19.641 18.0946 19.641C16.9986 19.641 16.0797 20.5401 16.0464 21.6126C16.0464 22.8585 15.0279 23.8335 13.7547 23.8335H12.249C10.9648 23.8335 9.94622 22.8585 9.94622 21.6126C9.92407 20.5401 9.00516 19.641 7.90911 19.641C7.54376 19.641 7.21163 19.706 6.93485 19.8901C6.58057 20.1068 6.13772 20.2151 5.7613 20.2151C4.96417 20.2151 4.20026 19.7818 3.79063 19.0885L3.02671 17.7885C2.61708 17.0843 2.59494 16.2393 3.00457 15.5676C3.18171 15.2426 3.51385 14.9176 3.89027 14.7118C4.20026 14.5601 4.39954 14.311 4.58775 14.0185C5.14131 13.0868 4.80918 11.8626 3.86812 11.3101C2.77207 10.6926 2.4178 9.31681 3.04885 8.24431L3.79063 6.96598C4.43276 5.89348 5.80558 5.51431 6.91271 6.14264C7.8759 6.66264 9.12695 6.31598 9.69158 5.39514C9.86872 5.09181 9.96836 4.76681 9.94622 4.44181C9.92407 4.01931 10.0459 3.61848 10.2562 3.29348C10.6658 2.62181 11.4076 2.18848 12.2158 2.16681H13.7769C14.5961 2.16681 15.3379 2.62181 15.7475 3.29348C15.9468 3.61848 16.0797 4.01931 16.0464 4.44181C16.0243 4.76681 16.1239 5.09181 16.3011 5.39514C16.8657 6.31598 18.1168 6.66264 19.091 6.14264C20.1871 5.51431 21.571 5.89348 22.202 6.96598L22.9438 8.24431C23.5859 9.31681 23.2317 10.6926 22.1245 11.3101C21.1835 11.8626 20.8514 13.0868 21.416 14.0185C21.5931 14.311 21.7924 14.5601 22.1024 14.7118ZM9.86875 13.011C9.86875 14.7118 11.2748 16.066 13.013 16.066C14.7512 16.066 16.124 14.7118 16.124 13.011C16.124 11.3101 14.7512 9.94512 13.013 9.94512C11.2748 9.94512 9.86875 11.3101 9.86875 13.011Z" fill="#F7EB70"/>
</svg>
