<svg width="35" height="40" viewBox="0 0 35 40" fill="none" xmlns="http://www.w3.org/2000/svg">
<path d="M34.2144 13.1946C34.2144 9.98959 31.6337 7.40895 28.4287 7.40895H26.8054V5.78564C26.8054 2.58065 24.2248 0 21.0198 0C19.5213 0 18.1478 0.582725 17.1072 1.54006C16.0666 0.582725 14.693 0 13.1946 0C9.9896 0 7.40896 2.58065 7.40896 5.78564V7.40895H5.78565C2.58066 7.40895 0 9.98959 0 13.1946C0 16.3996 2.58066 18.9802 5.78565 18.9802H15.1925V28.3871C15.1925 31.5921 17.7732 34.1727 20.9782 34.1727C24.1832 34.1727 26.7638 31.5921 26.7638 28.3871V26.7638H28.3871C31.5921 26.7638 34.1727 24.1831 34.1727 20.9782C34.1727 19.4797 33.59 18.1061 32.6327 17.0656C33.6316 16.0666 34.2144 14.693 34.2144 13.1946ZM15.2758 15.2341H5.86889C4.74506 15.2341 3.82935 14.3184 3.82935 13.1946C3.82935 12.0708 4.74506 11.155 5.86889 11.155H11.2383V5.78564C11.2383 4.66181 12.154 3.7461 13.2778 3.7461C14.4017 3.7461 15.3174 4.66181 15.3174 5.78564V15.2341H15.2758ZM28.4287 23.0177H23.0593V28.3871C23.0593 29.5109 22.1436 30.4266 21.0198 30.4266C19.8959 30.4266 18.9802 29.5109 18.9802 28.3871V18.9802H28.3871C29.5109 18.9802 30.4266 19.8959 30.4266 21.0198C30.4266 22.1436 29.5526 23.0177 28.4287 23.0177ZM28.4287 15.2341H19.0219V5.82726C19.0219 4.70343 19.9376 3.78772 21.0614 3.78772C22.1852 3.78772 23.1009 4.70343 23.1009 5.82726V11.1967H28.4704C29.5942 11.1967 30.5099 12.1124 30.5099 13.2362C30.5099 14.36 29.5526 15.2341 28.4287 15.2341ZM0.249742 22.768V27.513L9.24038 20.4787H3.16337L0.249742 22.768ZM0.249742 29.0531V33.7981L13.7357 23.2674V20.5203H11.1967L0.249742 29.0531ZM0.249742 40L13.7357 29.5526V24.8075L0.249742 35.3382V40Z" fill="#72BF44"/>
</svg>
